<svg id="svg" version="1.1" xmlns="http://www.w3.org/2000/svg" xmlns:xlink="http://www.w3.org/1999/xlink" width="400" height="400" viewBox="0, 0, 400,400"><g id="svgg"><path id="path0" d="M38.130 81.463 C 38.275 81.608,38.193 81.968,37.948 82.263 C 37.432 82.884,36.229 83.001,36.604 82.393 C 36.742 82.170,37.023 82.091,37.228 82.217 C 37.432 82.344,37.600 82.258,37.600 82.026 C 37.600 81.795,37.195 81.681,36.700 81.773 C 36.205 81.865,35.719 81.954,35.620 81.970 C 35.521 81.987,35.648 82.208,35.901 82.461 C 36.227 82.787,36.242 83.148,35.950 83.693 C 35.724 84.116,35.637 84.718,35.757 85.031 C 35.877 85.344,35.756 85.615,35.487 85.632 C 35.219 85.650,34.504 85.701,33.898 85.746 C 32.684 85.835,30.689 87.577,31.466 87.869 C 31.793 87.992,31.824 88.420,31.570 89.305 C 31.067 91.058,31.093 320.467,31.596 321.790 C 31.989 322.822,33.600 323.248,33.600 322.320 C 33.600 321.965,33.717 321.957,34.049 322.289 C 34.296 322.536,34.746 322.642,35.049 322.526 C 35.413 322.386,35.600 322.609,35.600 323.181 C 35.600 323.657,35.778 323.937,35.995 323.803 C 36.230 323.658,36.284 323.837,36.127 324.245 C 35.982 324.625,36.028 324.830,36.232 324.704 C 36.434 324.579,36.626 324.916,36.659 325.453 C 36.707 326.253,36.615 326.344,36.149 325.958 C 35.691 325.578,35.630 325.613,35.834 326.143 C 36.131 326.918,37.047 327.014,37.335 326.300 C 37.474 325.957,37.549 325.988,37.575 326.400 C 37.608 326.933,37.655 326.933,38.000 326.400 C 38.334 325.883,38.389 325.894,38.394 326.477 C 38.400 327.103,39.735 327.148,56.467 327.077 L 74.534 327.000 74.615 325.024 C 74.694 323.099,76.054 321.229,77.400 321.193 C 77.620 321.187,78.340 320.535,79.000 319.744 C 79.660 318.953,80.875 317.621,81.700 316.784 C 82.525 315.947,83.200 315.095,83.200 314.889 C 83.200 314.684,84.010 313.683,85.000 312.664 C 85.990 311.645,86.800 310.632,86.800 310.411 C 86.800 310.191,87.655 309.140,88.700 308.076 C 89.745 307.012,90.928 305.564,91.329 304.859 C 91.731 304.154,92.973 302.727,94.090 301.689 C 95.207 300.650,96.351 299.575,96.632 299.300 C 96.913 299.025,97.245 298.800,97.371 298.800 C 97.496 298.800,98.239 298.195,99.023 297.456 C 99.806 296.717,101.202 295.870,102.124 295.575 C 103.046 295.279,104.430 294.683,105.200 294.251 C 105.970 293.819,107.320 293.090,108.200 292.632 L 109.800 291.800 200.000 291.800 L 290.200 291.800 292.000 292.708 C 292.990 293.208,294.340 293.931,295.000 294.316 C 295.660 294.701,296.920 295.260,297.800 295.558 C 300.694 296.540,306.198 301.163,309.026 304.987 C 309.672 305.860,310.875 307.255,311.700 308.087 C 312.525 308.919,313.200 309.788,313.200 310.017 C 313.200 310.520,313.776 311.238,315.500 312.886 C 316.215 313.569,316.800 314.290,316.800 314.488 C 316.800 314.685,317.565 315.661,318.500 316.656 C 319.435 317.650,320.459 318.888,320.776 319.405 C 321.094 319.923,321.814 320.577,322.376 320.859 C 325.334 322.339,325.661 322.761,325.546 324.947 L 325.437 327.000 342.918 327.074 C 355.747 327.129,360.400 327.028,360.400 326.694 C 360.400 326.369,360.537 326.377,360.880 326.720 C 361.566 327.406,362.400 327.313,362.400 326.551 C 362.400 326.080,362.537 326.014,362.900 326.311 C 363.540 326.834,364.454 325.935,364.011 325.218 C 363.637 324.613,364.415 322.362,364.896 322.659 C 365.082 322.775,365.497 322.651,365.818 322.385 C 366.279 322.002,366.401 322.016,366.406 322.451 C 366.411 322.882,366.495 322.871,366.800 322.400 C 367.045 322.021,367.190 321.979,367.194 322.287 C 367.197 322.556,367.467 322.673,367.793 322.547 C 368.233 322.379,368.284 322.131,367.993 321.586 C 367.455 320.581,367.498 320.386,368.200 320.655 C 368.585 320.803,368.800 320.647,368.800 320.219 C 368.800 319.836,368.613 319.669,368.360 319.825 C 368.041 320.022,368.041 319.871,368.361 319.273 C 368.960 318.154,368.980 87.442,368.381 87.812 C 368.129 87.967,368.042 87.681,368.154 87.066 C 368.384 85.794,368.098 85.519,367.099 86.054 C 366.525 86.361,366.379 86.357,366.575 86.040 C 366.752 85.754,366.382 85.600,365.514 85.600 C 364.193 85.600,364.182 85.584,364.191 83.734 C 364.197 82.410,364.026 81.821,363.600 81.704 C 363.067 81.557,363.067 81.586,363.600 81.963 C 364.025 82.264,364.051 82.390,363.687 82.394 C 363.406 82.397,363.073 82.135,362.949 81.811 C 362.664 81.068,40.673 80.876,39.778 81.618 C 39.425 81.912,39.193 81.912,39.012 81.619 C 38.869 81.389,38.553 81.200,38.310 81.200 C 38.066 81.200,37.985 81.318,38.130 81.463 M264.805 109.002 C 266.717 109.991,266.867 111.272,266.727 125.400 C 266.590 139.238,266.472 140.035,264.400 141.082 C 263.606 141.484,250.267 141.589,199.800 141.594 L 136.200 141.599 135.177 140.700 C 133.612 139.323,133.200 135.993,133.200 124.721 C 133.200 112.106,133.615 109.808,136.075 108.822 C 137.829 108.118,263.436 108.295,264.805 109.002 M241.400 174.612 C 243.247 175.277,246.238 175.385,246.600 174.800 C 246.761 174.540,255.863 174.400,272.599 174.400 C 300.734 174.400,302.563 174.526,304.649 176.613 C 305.188 177.151,306.117 177.712,306.714 177.859 C 309.073 178.439,311.130 179.587,312.972 181.352 C 314.032 182.368,315.082 183.200,315.303 183.200 C 315.725 183.200,317.200 184.737,317.200 185.176 C 317.200 185.316,318.058 186.345,319.107 187.462 C 320.439 188.881,321.298 190.296,321.954 192.154 C 322.470 193.618,323.402 195.360,324.025 196.027 C 325.557 197.666,325.802 199.466,325.792 209.000 C 325.782 218.167,325.593 219.494,324.070 221.125 C 323.463 221.775,322.537 223.593,322.011 225.166 C 321.248 227.451,320.710 228.324,319.334 229.513 C 318.386 230.331,317.608 231.180,317.605 231.400 C 317.596 231.983,315.783 234.000,315.267 234.000 C 315.026 234.000,314.057 234.800,313.114 235.778 C 311.544 237.406,308.329 239.200,306.981 239.200 C 306.677 239.200,305.778 239.771,304.983 240.468 C 302.472 242.673,301.136 242.769,272.680 242.785 C 250.049 242.798,247.020 242.728,245.923 242.160 C 244.867 241.614,244.248 241.585,241.726 241.960 C 237.564 242.579,163.013 242.571,158.577 241.951 C 155.790 241.561,155.183 241.588,154.096 242.150 C 152.975 242.730,150.102 242.800,127.446 242.800 C 99.055 242.800,97.530 242.687,95.143 240.406 C 94.449 239.743,93.546 239.200,93.135 239.200 C 92.725 239.200,92.077 239.041,91.695 238.847 C 91.313 238.652,90.460 238.247,89.800 237.947 C 89.140 237.646,87.991 236.722,87.246 235.893 C 86.501 235.064,85.286 234.099,84.546 233.747 C 83.806 233.396,83.200 232.947,83.200 232.749 C 83.200 232.202,81.446 229.611,81.071 229.605 C 80.184 229.592,78.539 226.677,77.859 223.914 C 77.712 223.317,77.157 222.393,76.626 221.862 C 73.420 218.656,73.414 198.550,76.617 195.347 C 77.153 194.810,77.712 193.883,77.859 193.286 C 78.518 190.609,80.187 187.600,81.014 187.600 C 81.337 187.600,82.835 185.750,83.400 184.655 C 83.620 184.228,84.146 183.681,84.568 183.439 C 85.574 182.864,86.487 182.127,88.453 180.300 C 89.341 179.475,90.401 178.800,90.810 178.800 C 91.219 178.800,91.664 178.620,91.800 178.400 C 91.936 178.180,92.442 177.998,92.924 177.996 C 93.406 177.994,94.556 177.391,95.481 176.656 C 98.283 174.427,99.741 174.333,128.200 174.528 C 142.060 174.623,154.275 174.832,155.344 174.994 C 156.505 175.169,157.634 175.120,158.144 174.873 C 158.615 174.645,159.270 174.370,159.600 174.261 C 161.275 173.709,239.829 174.046,241.400 174.612 " stroke="none" fill="#1190dc" fill-rule="evenodd"></path><path id="path1" d="M158.900 176.198 C 158.323 176.853,158.232 178.000,158.756 178.000 C 158.952 178.000,159.348 178.799,159.636 179.775 C 159.965 180.890,160.514 181.740,161.111 182.059 C 162.516 182.811,163.658 185.191,164.225 188.549 C 164.398 189.570,164.865 190.450,165.497 190.948 C 167.687 192.671,168.721 201.846,168.252 215.400 C 167.940 224.434,167.843 224.920,165.983 226.817 C 164.639 228.188,164.435 228.664,164.183 231.018 C 163.924 233.443,163.748 233.828,162.162 235.461 C 160.303 237.373,159.372 239.612,160.123 240.363 C 160.863 241.103,239.488 240.969,240.232 240.226 C 240.591 239.866,240.655 239.558,240.403 239.402 C 240.181 239.265,240.000 238.757,240.000 238.274 C 240.000 237.753,239.413 236.909,238.556 236.198 C 236.903 234.827,236.486 233.939,235.949 230.644 C 235.665 228.902,235.277 228.016,234.463 227.244 C 232.273 225.167,232.197 224.583,232.233 210.000 C 232.269 194.863,232.468 193.288,234.636 190.990 C 235.386 190.194,236.000 189.198,236.000 188.777 C 236.000 186.833,237.080 184.152,238.392 182.837 C 240.625 180.600,242.145 177.223,241.326 176.318 C 240.433 175.332,159.766 175.215,158.900 176.198 M112.836 193.388 C 112.086 193.660,111.096 194.229,110.636 194.654 C 109.413 195.783,107.949 196.637,106.715 196.941 C 105.890 197.144,105.517 197.585,105.159 198.780 C 104.900 199.645,104.144 200.983,103.480 201.754 C 100.523 205.186,100.386 211.990,103.216 214.862 C 103.791 215.446,104.577 216.748,104.962 217.755 C 105.555 219.309,105.893 219.656,107.196 220.046 C 108.041 220.299,109.422 221.114,110.266 221.856 C 113.439 224.648,120.122 224.703,123.200 221.962 C 123.970 221.277,125.286 220.441,126.125 220.105 C 127.285 219.639,127.862 219.052,128.540 217.647 C 129.030 216.631,129.861 215.305,130.387 214.701 C 133.211 211.453,133.096 205.427,130.142 201.845 C 129.450 201.006,128.784 199.819,128.662 199.208 C 128.393 197.867,127.403 196.800,126.428 196.800 C 126.034 196.800,124.922 196.115,123.956 195.278 C 121.218 192.906,116.425 192.091,112.836 193.388 M279.400 193.343 C 278.740 193.594,277.717 194.258,277.126 194.819 C 276.074 195.816,275.319 196.252,273.100 197.142 C 272.495 197.384,272.000 197.851,272.000 198.179 C 272.000 198.934,270.635 201.381,269.587 202.506 C 267.101 205.174,267.586 213.048,270.394 215.600 C 270.757 215.930,271.335 216.920,271.679 217.800 C 272.170 219.056,272.643 219.529,273.876 220.000 C 274.740 220.330,276.156 221.189,277.023 221.908 C 280.339 224.659,286.482 224.788,289.441 222.169 C 290.078 221.605,291.538 220.718,292.685 220.200 C 294.295 219.472,294.831 219.000,295.038 218.129 C 295.263 217.177,296.802 214.685,297.587 214.000 C 299.223 212.573,299.202 204.077,297.559 202.800 C 296.896 202.285,295.200 199.414,295.200 198.806 C 295.200 197.931,294.101 196.979,292.708 196.648 C 292.107 196.505,291.027 195.802,290.308 195.085 C 288.175 192.960,282.699 192.085,279.400 193.343 " stroke="none" fill="#e8e9eb" fill-rule="evenodd"></path><path id="path2" d="M102.200 176.940 C 101.540 177.203,100.010 177.907,98.800 178.504 C 97.590 179.101,95.600 179.864,94.378 180.200 C 92.878 180.613,91.577 181.340,90.378 182.437 C 89.400 183.331,87.946 184.401,87.147 184.815 C 86.318 185.245,85.259 186.304,84.678 187.284 C 84.119 188.228,83.038 189.654,82.276 190.453 C 81.320 191.456,80.568 192.901,79.851 195.117 C 79.279 196.884,78.264 199.209,77.595 200.285 C 76.382 202.236,76.380 202.253,76.342 208.483 L 76.305 214.725 77.905 217.863 C 78.786 219.588,79.818 221.990,80.200 223.200 C 80.652 224.633,81.507 226.059,82.653 227.289 C 83.620 228.328,84.582 229.626,84.790 230.174 C 84.998 230.722,85.941 231.655,86.884 232.247 C 87.828 232.839,89.368 233.996,90.306 234.818 C 91.245 235.640,92.955 236.606,94.106 236.965 C 95.258 237.325,97.535 238.289,99.167 239.109 L 102.135 240.600 127.511 240.712 C 152.225 240.820,152.903 240.803,153.543 240.045 C 154.900 238.438,155.533 237.770,156.696 236.717 C 157.466 236.020,157.980 235.087,158.138 234.100 C 158.290 233.146,158.829 232.139,159.562 231.436 C 160.959 230.098,161.306 229.288,162.388 224.835 C 162.837 222.983,163.658 220.544,164.211 219.413 C 166.095 215.562,166.006 200.474,164.082 197.678 C 163.096 196.246,162.544 194.699,161.983 191.800 C 161.399 188.788,160.929 187.715,159.518 186.179 C 158.901 185.507,158.063 184.013,157.656 182.857 C 157.248 181.697,156.488 180.461,155.958 180.095 C 154.667 179.203,154.299 178.792,153.632 177.500 L 153.065 176.400 128.232 176.430 C 109.943 176.453,103.084 176.587,102.200 176.940 M246.395 177.809 C 245.916 178.583,244.911 179.685,244.162 180.256 C 243.413 180.827,242.800 181.606,242.800 181.986 C 242.800 183.008,241.596 185.253,240.405 186.450 C 239.345 187.517,238.843 188.847,238.009 192.800 C 237.525 195.091,236.844 196.823,236.260 197.249 C 233.950 198.932,234.312 216.176,236.761 221.081 C 237.222 222.005,237.600 223.031,237.600 223.361 C 237.600 223.993,238.519 227.639,239.021 229.000 C 239.183 229.440,239.808 230.340,240.410 231.000 C 241.012 231.660,241.734 232.920,242.013 233.800 C 242.666 235.857,243.490 237.111,244.372 237.391 C 244.757 237.513,245.326 238.105,245.636 238.707 C 246.747 240.860,245.659 240.774,272.000 240.785 C 297.995 240.796,298.213 240.782,301.527 238.863 C 302.557 238.266,304.438 237.457,305.706 237.066 C 307.145 236.623,308.875 235.648,310.306 234.476 C 311.568 233.443,313.110 232.334,313.734 232.013 C 314.358 231.691,315.148 230.882,315.489 230.214 C 315.831 229.546,316.847 228.116,317.746 227.036 C 319.638 224.764,320.400 223.419,320.400 222.350 C 320.400 221.438,321.818 218.265,322.970 216.600 C 324.246 214.755,324.233 202.252,322.953 200.521 C 321.692 198.816,320.400 196.140,320.400 195.235 C 320.400 193.939,319.535 192.323,317.766 190.316 C 316.853 189.279,315.820 187.829,315.471 187.093 C 315.122 186.357,314.333 185.500,313.718 185.189 C 312.272 184.458,309.533 182.395,308.928 181.579 C 308.668 181.230,307.318 180.616,305.928 180.217 C 302.958 179.363,299.600 177.970,299.600 177.592 C 299.600 176.576,295.504 176.400,271.886 176.400 L 247.265 176.400 246.395 177.809 M123.457 191.395 C 124.851 191.809,125.629 192.306,126.018 193.033 C 126.325 193.607,127.221 194.335,128.009 194.650 C 129.400 195.207,130.800 196.935,130.800 198.094 C 130.800 198.408,131.249 198.905,131.797 199.199 C 133.914 200.331,134.181 201.291,134.191 207.800 C 134.202 214.932,133.524 217.600,131.702 217.600 C 131.479 217.600,131.056 218.185,130.762 218.900 C 130.137 220.417,128.672 222.000,127.894 222.000 C 127.264 222.000,125.600 223.455,125.600 224.005 C 125.600 224.211,125.015 224.694,124.300 225.078 C 121.308 226.685,108.000 225.809,108.000 224.005 C 108.000 223.394,106.304 222.000,105.560 222.000 C 104.850 222.000,102.800 219.863,102.800 219.123 C 102.800 218.894,102.097 218.024,101.238 217.190 C 97.999 214.047,98.394 201.023,101.783 199.209 C 102.324 198.920,102.874 198.172,103.014 197.538 C 103.268 196.378,105.402 194.413,106.438 194.385 C 106.747 194.376,107.360 193.797,107.800 193.097 C 109.196 190.877,118.359 189.881,123.457 191.395 M289.965 191.340 C 290.942 191.632,292.112 192.347,292.586 192.942 C 293.058 193.533,294.063 194.341,294.822 194.738 C 295.720 195.209,296.511 196.101,297.094 197.301 C 297.586 198.314,298.334 199.252,298.756 199.386 C 302.126 200.456,302.118 214.398,298.745 217.354 C 297.895 218.099,297.200 218.895,297.200 219.124 C 297.200 219.777,295.187 222.000,294.595 222.000 C 294.302 222.000,293.343 222.733,292.466 223.628 C 289.405 226.751,276.151 226.925,274.755 223.861 C 274.507 223.316,273.487 222.530,272.378 222.029 C 270.866 221.346,270.283 220.803,269.743 219.579 C 269.361 218.714,268.755 217.913,268.396 217.799 C 266.613 217.233,266.000 214.833,266.000 208.419 C 266.000 201.981,266.162 201.259,267.977 199.600 C 268.579 199.050,269.372 197.965,269.739 197.189 C 270.147 196.326,270.987 195.483,271.903 195.016 C 272.726 194.597,273.876 193.709,274.458 193.043 C 276.354 190.873,285.166 189.905,289.965 191.340 " stroke="none" fill="#404548" fill-rule="evenodd"></path><path id="path3" d="M136.075 108.822 C 133.615 109.808,133.200 112.106,133.200 124.721 C 133.200 135.993,133.612 139.323,135.177 140.700 L 136.200 141.599 199.800 141.594 C 268.648 141.588,264.825 141.715,266.000 139.388 C 266.772 137.859,267.126 113.521,266.412 111.102 C 265.550 108.186,270.758 108.397,200.320 108.425 C 162.407 108.441,136.629 108.600,136.075 108.822 M159.300 174.279 C 158.254 174.484,158.124 175.008,159.033 175.357 C 159.958 175.712,240.460 175.599,241.373 175.241 C 242.013 174.990,242.048 174.874,241.573 174.569 C 241.006 174.204,161.114 173.922,159.300 174.279 M180.330 242.300 C 191.402 242.359,209.402 242.359,220.330 242.300 C 231.259 242.241,222.200 242.192,200.200 242.192 C 178.200 242.192,169.259 242.241,180.330 242.300 " stroke="none" fill="#34c4f4" fill-rule="evenodd"></path><path id="path4" d="M99.143 174.977 C 97.727 175.287,96.313 175.943,95.351 176.736 C 94.508 177.431,93.419 178.000,92.932 178.000 C 92.446 178.000,91.936 178.180,91.800 178.400 C 91.664 178.620,91.219 178.800,90.810 178.800 C 90.401 178.800,89.341 179.475,88.453 180.300 C 86.487 182.127,85.574 182.864,84.568 183.439 C 84.146 183.681,83.620 184.228,83.400 184.655 C 82.835 185.750,81.337 187.600,81.014 187.600 C 80.187 187.600,78.518 190.609,77.859 193.286 C 77.712 193.883,77.153 194.810,76.617 195.347 C 73.414 198.550,73.420 218.656,76.626 221.862 C 77.157 222.393,77.712 223.317,77.859 223.914 C 78.539 226.677,80.184 229.592,81.071 229.605 C 81.446 229.611,83.200 232.202,83.200 232.749 C 83.200 232.947,83.806 233.396,84.546 233.747 C 85.286 234.099,86.501 235.064,87.246 235.893 C 87.991 236.722,89.140 237.646,89.800 237.947 C 90.460 238.247,91.313 238.652,91.695 238.847 C 92.077 239.041,92.725 239.200,93.135 239.200 C 93.546 239.200,94.449 239.743,95.143 240.406 C 97.530 242.687,99.055 242.800,127.446 242.800 C 155.254 242.800,154.881 242.831,155.458 240.493 C 155.607 239.892,156.066 239.103,156.479 238.740 C 156.892 238.377,157.741 237.027,158.367 235.740 C 158.992 234.453,159.900 233.044,160.385 232.608 C 161.357 231.735,162.400 229.526,162.400 228.342 C 162.400 227.924,162.953 226.371,163.630 224.891 C 166.133 219.414,166.131 219.423,166.129 208.736 C 166.127 198.200,166.188 198.603,163.807 193.400 C 163.102 191.860,162.286 189.554,161.993 188.277 C 161.601 186.564,161.074 185.554,159.989 184.436 C 159.179 183.602,158.405 182.472,158.267 181.926 C 158.130 181.380,157.294 180.111,156.409 179.105 C 155.524 178.100,154.800 176.990,154.800 176.639 C 154.800 176.287,154.440 175.640,154.000 175.200 C 153.011 174.211,103.554 174.010,99.143 174.977 M246.223 175.289 C 245.880 175.778,245.600 176.410,245.600 176.693 C 245.600 176.976,245.105 177.732,244.500 178.374 C 242.566 180.424,242.000 181.195,242.000 181.780 C 242.000 182.094,241.294 183.167,240.430 184.165 C 239.567 185.162,238.751 186.388,238.616 186.889 C 238.482 187.390,238.176 188.520,237.936 189.400 C 237.697 190.280,236.896 192.260,236.156 193.800 C 232.961 200.456,233.066 217.877,236.341 224.249 C 237.034 225.597,237.603 227.037,237.606 227.449 C 237.617 228.825,238.704 231.359,239.778 232.515 C 240.362 233.143,241.139 234.319,241.505 235.128 C 241.870 235.938,242.751 237.338,243.462 238.239 C 244.173 239.141,244.868 240.334,245.008 240.889 C 245.485 242.789,245.662 242.801,272.719 242.785 C 301.132 242.769,302.473 242.673,304.983 240.468 C 305.778 239.771,306.677 239.200,306.981 239.200 C 308.329 239.200,311.544 237.406,313.114 235.778 C 314.057 234.800,315.026 234.000,315.267 234.000 C 315.783 234.000,317.596 231.983,317.605 231.400 C 317.608 231.180,318.386 230.331,319.334 229.513 C 320.710 228.324,321.248 227.451,322.011 225.166 C 322.537 223.593,323.463 221.775,324.070 221.125 C 325.593 219.494,325.782 218.167,325.792 209.000 C 325.802 199.466,325.557 197.666,324.025 196.027 C 323.402 195.360,322.470 193.618,321.954 192.154 C 321.298 190.296,320.439 188.881,319.107 187.462 C 318.058 186.345,317.200 185.316,317.200 185.176 C 317.200 184.737,315.725 183.200,315.303 183.200 C 315.082 183.200,314.032 182.368,312.972 181.352 C 311.130 179.587,309.073 178.439,306.714 177.859 C 306.117 177.712,305.188 177.151,304.649 176.613 C 302.563 174.526,300.734 174.400,272.598 174.400 L 246.845 174.400 246.223 175.289 M153.632 177.500 C 154.299 178.792,154.667 179.203,155.958 180.095 C 156.488 180.461,157.248 181.697,157.656 182.857 C 158.063 184.013,158.901 185.507,159.518 186.179 C 160.929 187.715,161.399 188.788,161.983 191.800 C 162.544 194.699,163.096 196.246,164.082 197.678 C 166.006 200.474,166.095 215.562,164.211 219.413 C 163.658 220.544,162.837 222.983,162.388 224.835 C 161.306 229.288,160.959 230.098,159.562 231.436 C 158.829 232.139,158.290 233.146,158.138 234.100 C 157.980 235.087,157.466 236.020,156.696 236.717 C 155.533 237.770,154.900 238.438,153.543 240.045 C 152.903 240.803,152.225 240.820,127.511 240.712 L 102.135 240.600 99.167 239.109 C 97.535 238.289,95.258 237.325,94.106 236.965 C 92.955 236.606,91.245 235.640,90.306 234.818 C 89.368 233.996,87.828 232.839,86.884 232.247 C 85.941 231.655,84.998 230.722,84.790 230.174 C 84.582 229.626,83.620 228.328,82.653 227.289 C 81.507 226.059,80.652 224.633,80.200 223.200 C 79.818 221.990,78.786 219.588,77.905 217.863 L 76.305 214.725 76.342 208.483 C 76.380 202.253,76.382 202.236,77.595 200.285 C 78.264 199.209,79.279 196.884,79.851 195.117 C 80.568 192.901,81.320 191.456,82.276 190.453 C 83.038 189.654,84.119 188.228,84.678 187.284 C 85.259 186.304,86.318 185.245,87.147 184.815 C 87.946 184.401,89.400 183.331,90.378 182.437 C 91.577 181.340,92.878 180.613,94.378 180.200 C 95.600 179.864,97.590 179.101,98.800 178.504 C 100.010 177.907,101.540 177.203,102.200 176.940 C 103.084 176.587,109.943 176.453,128.232 176.430 L 153.065 176.400 153.632 177.500 M298.054 176.863 C 298.904 177.118,299.600 177.446,299.600 177.592 C 299.600 177.970,302.958 179.363,305.928 180.217 C 307.318 180.616,308.668 181.230,308.928 181.579 C 309.533 182.395,312.272 184.458,313.718 185.189 C 314.333 185.500,315.122 186.357,315.471 187.093 C 315.820 187.829,316.853 189.279,317.766 190.316 C 319.535 192.323,320.400 193.939,320.400 195.235 C 320.400 196.140,321.692 198.816,322.953 200.521 C 324.233 202.252,324.246 214.755,322.970 216.600 C 321.818 218.265,320.400 221.438,320.400 222.350 C 320.400 223.419,319.638 224.764,317.746 227.036 C 316.847 228.116,315.831 229.546,315.489 230.214 C 315.148 230.882,314.358 231.691,313.734 232.013 C 313.110 232.334,311.568 233.443,310.306 234.476 C 308.875 235.648,307.145 236.623,305.706 237.066 C 304.438 237.457,302.557 238.266,301.527 238.863 C 298.213 240.782,297.995 240.796,272.000 240.785 C 245.659 240.774,246.747 240.860,245.636 238.707 C 245.326 238.105,244.757 237.513,244.372 237.391 C 243.490 237.111,242.666 235.857,242.013 233.800 C 241.734 232.920,241.012 231.660,240.410 231.000 C 239.808 230.340,239.183 229.440,239.021 229.000 C 238.519 227.639,237.600 223.993,237.600 223.361 C 237.600 223.031,237.222 222.005,236.761 221.081 C 234.312 216.176,233.950 198.932,236.260 197.249 C 236.844 196.823,237.525 195.091,238.009 192.800 C 238.843 188.847,239.345 187.517,240.405 186.450 C 241.596 185.253,242.800 183.008,242.800 181.986 C 242.800 181.606,243.413 180.827,244.162 180.256 C 244.911 179.685,245.916 178.583,246.395 177.809 L 247.265 176.400 271.886 176.400 C 289.387 176.400,296.954 176.534,298.054 176.863 M110.200 191.344 C 109.141 191.662,108.329 192.256,107.800 193.097 C 107.360 193.797,106.747 194.376,106.438 194.385 C 105.402 194.413,103.268 196.378,103.014 197.538 C 102.874 198.172,102.324 198.920,101.783 199.209 C 98.394 201.023,97.999 214.047,101.238 217.190 C 102.097 218.024,102.800 218.894,102.800 219.123 C 102.800 219.863,104.850 222.000,105.560 222.000 C 106.304 222.000,108.000 223.394,108.000 224.005 C 108.000 224.211,108.585 224.694,109.300 225.078 C 112.292 226.685,125.600 225.809,125.600 224.005 C 125.600 223.455,127.264 222.000,127.894 222.000 C 128.672 222.000,130.137 220.417,130.762 218.900 C 131.056 218.185,131.479 217.600,131.702 217.600 C 135.275 217.600,135.361 201.106,131.797 199.199 C 131.249 198.905,130.800 198.408,130.800 198.094 C 130.800 196.935,129.400 195.207,128.009 194.650 C 127.221 194.335,126.325 193.607,126.018 193.033 C 124.926 190.992,114.915 189.923,110.200 191.344 M276.858 191.347 C 276.120 191.614,275.040 192.377,274.458 193.043 C 273.876 193.709,272.726 194.597,271.903 195.016 C 270.987 195.483,270.147 196.326,269.739 197.189 C 269.372 197.965,268.579 199.050,267.977 199.600 C 266.405 201.037,265.995 202.068,266.039 204.474 L 266.078 206.600 266.553 204.200 C 267.089 201.491,267.377 200.906,268.681 199.871 C 269.187 199.470,269.600 198.908,269.600 198.621 C 269.600 197.956,272.109 195.200,272.715 195.200 C 272.967 195.200,273.783 194.591,274.528 193.846 C 278.025 190.348,288.205 190.123,292.111 193.458 C 293.234 194.416,294.322 195.200,294.529 195.200 C 295.084 195.200,296.425 196.822,297.018 198.208 C 297.302 198.873,297.927 199.772,298.408 200.207 C 301.673 203.162,301.488 213.781,298.114 217.057 C 297.391 217.759,296.800 218.561,296.800 218.838 C 296.800 219.398,294.112 222.000,293.534 222.000 C 293.333 222.000,292.458 222.704,291.589 223.564 C 288.787 226.338,276.277 226.364,275.399 223.598 C 275.281 223.223,274.346 222.487,273.323 221.960 C 272.300 221.434,270.949 220.283,270.320 219.402 C 269.692 218.521,268.687 217.228,268.089 216.529 C 267.396 215.720,266.837 214.410,266.551 212.929 L 266.103 210.600 266.051 212.546 C 265.995 214.666,267.228 217.428,268.396 217.799 C 268.755 217.913,269.361 218.714,269.743 219.579 C 270.283 220.803,270.866 221.346,272.378 222.029 C 273.487 222.530,274.507 223.316,274.755 223.861 C 276.151 226.925,289.405 226.751,292.466 223.628 C 293.343 222.733,294.302 222.000,294.595 222.000 C 295.187 222.000,297.200 219.777,297.200 219.124 C 297.200 218.895,297.895 218.099,298.745 217.354 C 302.118 214.398,302.126 200.456,298.756 199.386 C 298.334 199.252,297.586 198.314,297.094 197.301 C 296.511 196.101,295.720 195.209,294.822 194.738 C 294.063 194.341,293.058 193.533,292.586 192.942 C 290.996 190.947,280.815 189.914,276.858 191.347 M121.236 191.566 C 123.576 191.868,124.062 192.092,125.552 193.553 C 126.476 194.459,127.486 195.200,127.796 195.200 C 128.406 195.200,130.400 197.592,130.400 198.324 C 130.400 198.571,130.989 199.364,131.709 200.087 C 134.807 203.195,134.879 214.619,131.814 216.628 C 131.289 216.971,130.688 217.736,130.477 218.326 C 129.975 219.734,128.884 220.933,127.400 221.708 C 126.740 222.053,125.530 222.954,124.712 223.710 C 121.796 226.406,111.804 226.406,108.888 223.710 C 108.070 222.954,106.860 222.053,106.200 221.708 C 105.009 221.086,103.201 219.274,103.200 218.701 C 103.200 218.536,102.586 217.751,101.836 216.956 C 98.802 213.739,98.663 203.212,101.618 200.400 C 102.196 199.850,102.996 198.709,103.396 197.865 C 103.901 196.800,104.716 196.004,106.060 195.265 C 107.124 194.679,108.084 193.930,108.193 193.599 C 108.832 191.660,114.779 190.733,121.236 191.566 M110.800 291.963 C 109.065 292.217,108.218 292.564,105.200 294.253 C 104.430 294.684,103.046 295.279,102.124 295.575 C 101.202 295.870,99.806 296.717,99.023 297.456 C 98.239 298.195,97.496 298.800,97.371 298.800 C 97.245 298.800,96.913 299.025,96.632 299.300 C 96.351 299.575,95.207 300.650,94.090 301.689 C 92.973 302.727,91.731 304.154,91.329 304.859 C 90.928 305.564,89.745 307.012,88.700 308.076 C 87.655 309.140,86.800 310.191,86.800 310.411 C 86.800 310.632,85.990 311.645,85.000 312.664 C 84.010 313.683,83.200 314.684,83.200 314.889 C 83.200 315.095,82.525 315.947,81.700 316.784 C 80.875 317.621,79.660 318.953,79.000 319.744 C 78.340 320.535,77.620 321.187,77.400 321.193 C 76.032 321.230,74.708 323.088,74.604 325.118 L 74.498 327.200 199.980 327.200 L 325.463 327.200 325.550 325.041 C 325.644 322.739,325.343 322.344,322.376 320.859 C 321.814 320.577,321.094 319.923,320.776 319.405 C 320.459 318.888,319.435 317.650,318.500 316.656 C 317.565 315.661,316.800 314.685,316.800 314.488 C 316.800 314.290,316.215 313.569,315.500 312.886 C 313.776 311.238,313.200 310.520,313.200 310.017 C 313.200 309.788,312.525 308.919,311.700 308.087 C 310.875 307.255,309.672 305.860,309.026 304.987 C 306.198 301.163,300.694 296.540,297.800 295.558 C 296.920 295.260,295.660 294.702,295.000 294.319 C 294.340 293.937,293.080 293.213,292.200 292.712 L 290.600 291.800 201.600 291.750 C 152.650 291.722,111.790 291.818,110.800 291.963 M36.134 325.027 C 36.002 325.372,36.080 325.840,36.307 326.067 C 36.591 326.351,36.702 326.156,36.660 325.440 C 36.591 324.242,36.472 324.148,36.134 325.027 " stroke="none" fill="#145693" fill-rule="evenodd"></path><path id="path5" d="M156.298 175.122 C 153.941 175.273,153.987 176.327,156.472 179.167 C 157.322 180.138,158.130 181.380,158.267 181.926 C 158.405 182.472,159.179 183.602,159.989 184.436 C 161.074 185.554,161.601 186.564,161.993 188.277 C 162.286 189.554,163.102 191.860,163.807 193.400 C 166.188 198.603,166.127 198.200,166.129 208.736 C 166.131 219.423,166.133 219.414,163.630 224.891 C 162.953 226.371,162.400 227.924,162.400 228.342 C 162.400 229.526,161.357 231.735,160.385 232.608 C 159.900 233.044,158.992 234.453,158.367 235.740 C 157.741 237.027,156.892 238.377,156.479 238.740 C 154.780 240.233,155.019 241.466,157.062 241.746 C 159.487 242.079,240.928 242.077,243.353 241.744 C 245.543 241.444,245.554 240.904,243.427 238.200 C 242.735 237.320,241.870 235.938,241.505 235.128 C 241.139 234.319,240.362 233.143,239.778 232.515 C 238.704 231.359,237.617 228.825,237.606 227.449 C 237.603 227.037,237.034 225.597,236.341 224.249 C 233.066 217.877,232.961 200.456,236.156 193.800 C 236.896 192.260,237.697 190.280,237.936 189.400 C 238.176 188.520,238.482 187.390,238.616 186.889 C 238.751 186.388,239.567 185.162,240.430 184.165 C 241.294 183.167,242.000 182.094,242.000 181.780 C 242.000 181.183,242.796 180.089,244.277 178.651 C 245.101 177.852,246.181 175.648,245.891 175.357 C 245.633 175.100,241.186 175.081,240.931 175.336 C 240.788 175.478,240.965 175.919,241.323 176.315 C 242.145 177.223,240.629 180.596,238.392 182.837 C 237.080 184.152,236.000 186.833,236.000 188.777 C 236.000 189.198,235.386 190.194,234.636 190.990 C 232.468 193.288,232.269 194.863,232.233 210.000 C 232.197 224.583,232.273 225.167,234.463 227.244 C 235.277 228.016,235.665 228.902,235.949 230.644 C 236.486 233.939,236.903 234.827,238.556 236.198 C 239.413 236.909,240.000 237.753,240.000 238.274 C 240.000 238.757,240.181 239.265,240.403 239.402 C 240.655 239.558,240.591 239.866,240.232 240.226 C 239.488 240.969,160.863 241.103,160.123 240.363 C 159.372 239.612,160.303 237.373,162.162 235.461 C 163.748 233.828,163.924 233.443,164.183 231.018 C 164.435 228.664,164.639 228.188,165.983 226.817 C 167.843 224.920,167.940 224.434,168.252 215.400 C 168.721 201.846,167.687 192.671,165.497 190.948 C 164.865 190.450,164.398 189.570,164.225 188.549 C 163.658 185.191,162.516 182.811,161.111 182.059 C 160.514 181.740,159.965 180.890,159.636 179.775 C 159.348 178.799,158.952 178.000,158.756 178.000 C 158.560 178.000,158.400 177.640,158.400 177.200 C 158.400 176.760,158.580 176.400,158.800 176.400 C 159.379 176.400,159.292 175.312,158.700 175.143 C 158.425 175.064,157.344 175.055,156.298 175.122 M112.180 191.596 C 109.976 191.920,108.502 192.660,108.193 193.599 C 108.084 193.930,107.124 194.679,106.060 195.265 C 104.716 196.004,103.901 196.800,103.396 197.865 C 102.996 198.709,102.196 199.850,101.618 200.400 C 98.663 203.212,98.802 213.739,101.836 216.956 C 102.586 217.751,103.200 218.536,103.200 218.701 C 103.201 219.274,105.009 221.086,106.200 221.708 C 106.860 222.053,108.070 222.954,108.888 223.710 C 111.804 226.406,121.796 226.406,124.712 223.710 C 125.530 222.954,126.740 222.053,127.400 221.708 C 128.884 220.933,129.975 219.734,130.477 218.326 C 130.688 217.736,131.289 216.971,131.814 216.628 C 134.879 214.619,134.807 203.195,131.709 200.087 C 130.989 199.364,130.400 198.571,130.400 198.324 C 130.400 197.592,128.406 195.200,127.796 195.200 C 127.486 195.200,126.476 194.459,125.552 193.553 C 123.334 191.379,118.489 190.670,112.180 191.596 M279.600 191.472 C 277.046 191.735,276.480 191.985,274.801 193.599 C 273.884 194.480,272.937 195.200,272.696 195.200 C 272.104 195.200,269.600 197.967,269.600 198.621 C 269.600 198.908,269.179 199.473,268.664 199.879 C 265.561 202.319,265.165 213.200,268.058 216.511 C 268.678 217.220,269.697 218.521,270.324 219.402 C 270.950 220.283,272.300 221.434,273.323 221.960 C 274.346 222.487,275.281 223.223,275.399 223.598 C 276.277 226.364,288.787 226.338,291.589 223.564 C 292.458 222.704,293.333 222.000,293.534 222.000 C 294.112 222.000,296.800 219.398,296.800 218.838 C 296.800 218.561,297.391 217.759,298.114 217.057 C 301.488 213.781,301.673 203.162,298.408 200.207 C 297.927 199.772,297.302 198.873,297.018 198.208 C 296.417 196.802,295.081 195.200,294.509 195.200 C 294.291 195.200,293.251 194.442,292.198 193.515 C 289.848 191.446,285.969 190.817,279.600 191.472 M120.554 193.278 C 121.459 193.541,122.990 194.441,123.956 195.278 C 124.922 196.115,126.034 196.800,126.428 196.800 C 127.403 196.800,128.393 197.867,128.662 199.208 C 128.784 199.819,129.450 201.006,130.142 201.845 C 133.096 205.427,133.211 211.453,130.387 214.701 C 129.861 215.305,129.030 216.631,128.540 217.647 C 127.862 219.052,127.285 219.639,126.125 220.105 C 125.286 220.441,123.970 221.277,123.200 221.962 C 120.122 224.703,113.439 224.648,110.266 221.856 C 109.422 221.114,108.041 220.299,107.196 220.046 C 105.893 219.656,105.555 219.309,104.962 217.755 C 104.577 216.748,103.791 215.446,103.216 214.862 C 100.386 211.990,100.523 205.186,103.480 201.754 C 104.144 200.983,104.900 199.645,105.159 198.780 C 105.517 197.585,105.890 197.144,106.715 196.941 C 107.949 196.637,109.413 195.783,110.636 194.654 C 112.481 192.950,117.182 192.299,120.554 193.278 M287.354 193.291 C 288.259 193.561,289.588 194.368,290.308 195.085 C 291.027 195.802,292.107 196.505,292.708 196.648 C 294.101 196.979,295.200 197.931,295.200 198.806 C 295.200 199.414,296.896 202.285,297.559 202.800 C 299.202 204.077,299.223 212.573,297.587 214.000 C 296.802 214.685,295.263 217.177,295.038 218.129 C 294.831 219.000,294.295 219.472,292.685 220.200 C 291.538 220.718,290.078 221.605,289.441 222.169 C 286.482 224.788,280.339 224.659,277.023 221.908 C 276.156 221.189,274.740 220.330,273.876 220.000 C 272.643 219.529,272.170 219.056,271.679 217.800 C 271.335 216.920,270.757 215.930,270.394 215.600 C 267.586 213.048,267.101 205.174,269.587 202.506 C 270.635 201.381,272.000 198.934,272.000 198.179 C 272.000 197.851,272.495 197.384,273.100 197.142 C 275.319 196.252,276.074 195.816,277.126 194.819 C 279.164 192.886,283.716 192.206,287.354 193.291 " stroke="none" fill="#94acbc" fill-rule="evenodd"></path></g></svg>